<svg xmlns="http://www.w3.org/2000/svg" viewBox="0 0 64 64" role="img" aria-label="puzzle_incremental">
  <defs>
    <pattern id="blocked-stripes" width="8" height="8" patternUnits="userSpaceOnUse" patternTransform="rotate(45)">
      <rect width="8" height="8" fill="#0d1713" />
      <rect width="3" height="8" fill="#28312d" opacity="0.9" />
    </pattern>
    <linearGradient id="piece-fill" x1="11" y1="11" x2="53" y2="53" gradientUnits="userSpaceOnUse">
      <stop stop-color="#6d8d5d" />
      <stop offset="1" stop-color="#2f8058" />
    </linearGradient>
  </defs>
  <rect width="64" height="64" rx="13" fill="#07100d" />
  <rect x="6" y="6" width="52" height="52" rx="10" fill="#0b1612" stroke="#26392f" stroke-width="2" />
  <g stroke="#345043" stroke-width="2">
    <rect x="11" y="11" width="12" height="12" rx="2" fill="url(#piece-fill)" />
    <rect x="26" y="11" width="12" height="12" rx="2" fill="url(#piece-fill)" />
    <rect x="41" y="11" width="12" height="12" rx="2" fill="url(#piece-fill)" />

    <rect x="11" y="26" width="12" height="12" rx="2" fill="url(#piece-fill)" />
    <rect x="26" y="26" width="12" height="12" rx="2" fill="url(#piece-fill)" />
    <rect x="41" y="26" width="12" height="12" rx="2" fill="url(#piece-fill)" />

    <rect x="11" y="41" width="12" height="12" rx="2" fill="url(#piece-fill)" />
    <rect x="26" y="41" width="12" height="12" rx="2" fill="url(#blocked-stripes)" />
    <rect x="41" y="41" width="12" height="12" rx="2" fill="url(#blocked-stripes)" />
  </g>
</svg>
